<?xml version="1.0" ?><svg viewBox="0 0 64 64" xmlns="http://www.w3.org/2000/svg"><title/><g id="CCTV"><circle cx="32" cy="41" r="3"/><path d="M32,30A11,11,0,1,0,43,41,11.0125,11.0125,0,0,0,32,30Zm3.134,3.5718a1,1,0,1,1,.366,1.366A1,1,0,0,1,35.134,33.5718ZM32,32a1,1,0,1,1-1,1A1,1,0,0,1,32,32Zm-4.5,1.2057a1,1,0,1,1-.366,1.3661A1,1,0,0,1,27.5,33.2057ZM23,41a1,1,0,1,1,1,1A1,1,0,0,1,23,41Zm2.5718,4.866a1,1,0,1,1,.366-1.366A1,1,0,0,1,25.5718,45.866Zm.366-8.366a1,1,0,1,1-.366-1.366A1,1,0,0,1,25.9378,37.5ZM28.866,48.4282a1,1,0,1,1-.366-1.3661A1,1,0,0,1,28.866,48.4282ZM32,50a1,1,0,1,1,1-1A1,1,0,0,1,32,50Zm4.5-1.2058a1,1,0,1,1,.366-1.366A1,1,0,0,1,36.5,48.7942ZM32,46a5,5,0,1,1,5-5A5.0059,5.0059,0,0,1,32,46Zm7.7943-.5a1,1,0,1,1-.3661-1.366A1,1,0,0,1,39.7943,45.5ZM41,41a1,1,0,1,1-1-1A1,1,0,0,1,41,41Zm-1.5718-3.134a1,1,0,1,1,.3661-1.366A1,1,0,0,1,39.4282,37.866Z"/><path d="M47,41a15,15,0,0,0-30,0V51.6844A20.9023,20.9023,0,0,0,31.9746,58h.0508A20.9023,20.9023,0,0,0,47,51.6844ZM32,54A13,13,0,1,1,45,41,13.0147,13.0147,0,0,1,32,54Z"/><path d="M11,22V37.0249a20.8359,20.8359,0,0,0,4,12.2712V41a17,17,0,1,1,34,0v8.2961a20.8359,20.8359,0,0,0,4-12.2712V22Z"/><path d="M60,14V7a1,1,0,0,0-1-1H5A1,1,0,0,0,4,7v7Z"/><path d="M4.5859,16,8.293,19.707A.9993.9993,0,0,0,9,20H55a.9993.9993,0,0,0,.707-.293L59.4141,16Z"/></g></svg>